<?xml version="1.0" encoding="UTF-8" standalone="no"?>
<!-- Generator: Adobe Illustrator 19.0.0, SVG Export Plug-In . SVG Version: 6.00 Build 0)  -->

<svg
   xmlns:dc="http://purl.org/dc/elements/1.1/"
   xmlns:cc="http://creativecommons.org/ns#"
   xmlns:rdf="http://www.w3.org/1999/02/22-rdf-syntax-ns#"
   xmlns:svg="http://www.w3.org/2000/svg"
   xmlns="http://www.w3.org/2000/svg"
   xmlns:sodipodi="http://sodipodi.sourceforge.net/DTD/sodipodi-0.dtd"
   xmlns:inkscape="http://www.inkscape.org/namespaces/inkscape"
   version="1.1"
   id="Layer_1"
   x="0px"
   y="0px"
   viewBox="0 0 512 512"
   style="enable-background:new 0 0 512 512;"
   xml:space="preserve"
   width="512px"
   height="512px"
   inkscape:version="0.48.4 r9939"
   sodipodi:docname="beach.svg"><metadata
     id="metadata12831"><rdf:RDF><cc:Work
         rdf:about=""><dc:format>image/svg+xml</dc:format><dc:type
           rdf:resource="http://purl.org/dc/dcmitype/StillImage" /><dc:title></dc:title></cc:Work></rdf:RDF></metadata><defs
     id="defs12829" /><sodipodi:namedview
     pagecolor="#ffffff"
     bordercolor="#666666"
     borderopacity="1"
     objecttolerance="10"
     gridtolerance="10"
     guidetolerance="10"
     inkscape:pageopacity="0"
     inkscape:pageshadow="2"
     inkscape:window-width="2560"
     inkscape:window-height="1605"
     id="namedview12827"
     showgrid="false"
     inkscape:zoom="1.84375"
     inkscape:cx="160.69639"
     inkscape:cy="232.98907"
     inkscape:window-x="0"
     inkscape:window-y="73"
     inkscape:window-maximized="1"
     inkscape:current-layer="g12787" /><g
     id="g12665"
     style="fill:#71d0d0;fill-opacity:1"><g
       id="g12667"
       style="fill:#71d0d0;fill-opacity:1"><path
         d="M224.653,23.472l-1.109-7.758c-10.65,1.521-26.185,6.3-35.463,15.703c-9.279-9.403-24.813-14.181-35.463-15.703    l-2.216,15.517c6.304,0.901,29.842,6.656,29.842,18.364h15.673c0-5.186,4.472-9.757,13.292-13.59    c8.089-3.514,16.479-4.765,16.563-4.776L224.653,23.472z"
         fill="#f03aa0"
         id="path12669"
         style="fill:#71d0d0;fill-opacity:1" /></g></g><g
     id="g12671"
     style="fill:#71d0d0;fill-opacity:1"><g
       id="g12673"
       style="fill:#71d0d0;fill-opacity:1"><path
         d="M308.245,75.717l-1.109-7.758c-10.65,1.521-26.185,6.3-35.463,15.703c-9.279-9.403-24.813-14.181-35.463-15.703    l-2.216,15.517c6.304,0.901,29.842,6.656,29.842,18.364h15.673c0-5.186,4.472-9.757,13.292-13.59    c8.089-3.514,16.479-4.765,16.563-4.776L308.245,75.717z"
         fill="#f03aa0"
         id="path12675"
         style="fill:#71d0d0;fill-opacity:1" /></g></g><g
     id="g12677"
     style="fill:#fbc721;fill-opacity:1"><g
       id="g12679"
       style="fill:#fbc721;fill-opacity:1"><rect
         x="26.122"
         y="459.715"
         width="20.898"
         height="15.673"
         fill="#f03aa0"
         id="rect12681"
         style="fill:#fbc721;fill-opacity:1" /></g></g><g
     id="g12683"
     style="fill:#fbc721;fill-opacity:1"><g
       id="g12685"
       style="fill:#fbc721;fill-opacity:1"><rect
         x="67.918"
         y="417.919"
         width="20.898"
         height="15.673"
         fill="#f03aa0"
         id="rect12687"
         style="fill:#fbc721;fill-opacity:1" /></g></g><g
     id="g12689"
     style="fill:#fbc721;fill-opacity:1"><g
       id="g12691"
       style="fill:#fbc721;fill-opacity:1"><rect
         x="67.918"
         y="480.613"
         width="20.898"
         height="15.673"
         fill="#f03aa0"
         id="rect12693"
         style="fill:#fbc721;fill-opacity:1" /></g></g><g
     id="g12695"
     style="fill:#fbc721;fill-opacity:1"><g
       id="g12697"
       style="fill:#fbc721;fill-opacity:1"><rect
         x="130.612"
         y="470.164"
         width="20.898"
         height="15.673"
         fill="#f03aa0"
         id="rect12699"
         style="fill:#fbc721;fill-opacity:1" /></g></g><g
     id="g12701"
     style="fill:#fbc721;fill-opacity:1"><g
       id="g12703"
       style="fill:#fbc721;fill-opacity:1"><rect
         x="203.755"
         y="480.613"
         width="20.898"
         height="15.673"
         fill="#f03aa0"
         id="rect12705"
         style="fill:#fbc721;fill-opacity:1" /></g></g><g
     id="g12707"
     style="fill:#fbc721;fill-opacity:1"><g
       id="g12709"
       style="fill:#fbc721;fill-opacity:1"><rect
         x="203.755"
         y="428.368"
         width="20.898"
         height="15.673"
         fill="#f03aa0"
         id="rect12711"
         style="fill:#fbc721;fill-opacity:1" /></g></g><g
     id="g12713"
     style="fill:#fbc721;fill-opacity:1"><g
       id="g12715"
       style="fill:#fbc721;fill-opacity:1"><rect
         x="266.449"
         y="417.919"
         width="20.898"
         height="15.673"
         fill="#f03aa0"
         id="rect12717"
         style="fill:#fbc721;fill-opacity:1" /></g></g><g
     id="g12719"
     style="fill:#fbc721;fill-opacity:1"><g
       id="g12721"
       style="fill:#fbc721;fill-opacity:1"><rect
         x="339.592"
         y="449.266"
         width="20.898"
         height="15.673"
         fill="#f03aa0"
         id="rect12723"
         style="fill:#fbc721;fill-opacity:1" /></g></g><g
     id="g12725"><g
       id="g12727"><rect
         x="287.347"
         y="480.613"
         width="20.898"
         height="15.673"
         fill="#f03aa0"
         id="rect12729"
         style="fill:#fbc721;fill-opacity:1" /></g></g><g
     id="g12731"
     style="fill:#fbc721;fill-opacity:1"><g
       id="g12733"
       style="fill:#fbc721;fill-opacity:1"><rect
         x="391.837"
         y="417.919"
         width="20.898"
         height="15.673"
         fill="#f03aa0"
         id="rect12735"
         style="fill:#fbc721;fill-opacity:1" /></g></g><g
     id="g12737"
     style="fill:#fbc721;fill-opacity:1"><g
       id="g12739"
       style="fill:#fbc721;fill-opacity:1"><rect
         x="391.837"
         y="480.613"
         width="20.898"
         height="15.673"
         fill="#f03aa0"
         id="rect12741"
         style="fill:#fbc721;fill-opacity:1" /></g></g><g
     id="g12743"
     style="fill:#fbc721;fill-opacity:1"><g
       id="g12745"
       style="fill:#fbc721;fill-opacity:1"><rect
         x="464.98"
         y="449.266"
         width="20.898"
         height="15.673"
         fill="#f03aa0"
         id="rect12747"
         style="fill:#fbc721;fill-opacity:1" /></g></g><g
     id="g12749"
     style="fill:#71d0d0;fill-opacity:1"><g
       id="g12751"
       style="fill:#71d0d0;fill-opacity:1"><rect
         x="219.429"
         y="318.654"
         width="47.02"
         height="15.673"
         fill="#f03aa0"
         id="rect12753"
         style="fill:#71d0d0;fill-opacity:1" /></g></g><g
     id="g12755"
     style="fill:#71d0d0;fill-opacity:1"><g
       id="g12757"
       style="fill:#71d0d0;fill-opacity:1"><rect
         x="276.898"
         y="318.654"
         width="20.898"
         height="15.673"
         fill="#f03aa0"
         id="rect12759"
         style="fill:#71d0d0;fill-opacity:1" /></g></g><g
     id="g12761"
     style="fill:#71d0d0;fill-opacity:1"><g
       id="g12763"
       style="fill:#71d0d0;fill-opacity:1"><rect
         x="20.898"
         y="339.552"
         width="47.02"
         height="15.673"
         fill="#f03aa0"
         id="rect12765"
         style="fill:#71d0d0;fill-opacity:1" /></g></g><g
     id="g12767"
     style="fill:#71d0d0;fill-opacity:1"><g
       id="g12769"
       style="fill:#71d0d0;fill-opacity:1"><rect
         x="78.367"
         y="339.552"
         width="20.898"
         height="15.673"
         fill="#f03aa0"
         id="rect12771"
         style="fill:#71d0d0;fill-opacity:1" /></g></g><g
     id="g12773"
     style="fill:#71d0d0;fill-opacity:1"><g
       id="g12775"
       style="fill:#71d0d0;fill-opacity:1"><rect
         x="407.51"
         y="339.552"
         width="47.02"
         height="15.673"
         fill="#f03aa0"
         id="rect12777"
         style="fill:#71d0d0;fill-opacity:1" /></g></g><g
     id="g12779"
     style="fill:#71d0d0;fill-opacity:1"><g
       id="g12781"
       style="fill:#71d0d0;fill-opacity:1"><rect
         x="376.163"
         y="339.552"
         width="20.898"
         height="15.673"
         fill="#f03aa0"
         id="rect12783"
         style="fill:#71d0d0;fill-opacity:1" /></g></g><g
     id="g12785"><g
       id="g12787"><path
         d="m 512,287.309 0,-15.673 -357.878,0 0,-57.469 99.265,0 0,-7.837 c 0,-59.057 -48.045,-107.102 -107.102,-107.102 -59.057,0 -107.101,48.045 -107.101,107.101 l 0,7.837 99.265,0 0,57.469 -138.449,0 0,15.673 138.449,0 0,88.816 -138.449,0 0,15.674 138.449,0 0,31.347 -23.51,0 0,15.673 62.694,0 0,-15.673 -23.51,0 0,-31.347 357.877,0 0,-15.674 -357.878,0 0,-88.816 357.878,0 z m -274.618,-88.817 -46.891,0 c -1.768,-38.054 -16.039,-66.042 -26.755,-81.921 39.596,7.685 70.155,41.002 73.646,81.921 z m -182.193,0 c 3.499,-41.011 34.189,-74.38 73.914,-81.966 -12.07,17.268 -29.727,47.89 -32.165,81.966 z m 57.477,0 c 2.868,-34.181 23.526,-65.466 33.763,-79.066 9.151,12.074 26.295,39.7 28.364,79.066 z"
         id="path12789"
         inkscape:connector-curvature="0"
         style="fill:#f03aa0"
         sodipodi:nodetypes="cccccsssccccccccccccccccccccccccccccccccccc" /><rect
         style="fill:#71d0d0;fill-opacity:1;stroke:#f03aa0;stroke-width:9.81686878;stroke-miterlimit:3;stroke-opacity:1;stroke-dasharray:none"
         id="rect13341"
         width="5.8561311"
         height="5.8561316"
         x="143.35744"
         y="276.54343" /></g></g><g
     id="g12791"><g
       id="g12793"><path
         d="M412.735,73.105c-38.891,0-70.531,31.64-70.531,70.531s31.639,70.531,70.531,70.531s70.531-31.639,70.531-70.531    S451.626,73.105,412.735,73.105z M412.735,198.492c-30.248,0-54.857-24.608-54.857-54.857c0-30.249,24.609-54.857,54.857-54.857    c30.248,0,54.857,24.608,54.857,54.857C467.592,173.884,442.982,198.492,412.735,198.492z"
         fill="#f03aa0"
         id="path12795"
         style="fill:#fbc721;fill-opacity:1" /></g></g><g
     id="g12797" /><g
     id="g12799" /><g
     id="g12801" /><g
     id="g12803" /><g
     id="g12805" /><g
     id="g12807" /><g
     id="g12809" /><g
     id="g12811" /><g
     id="g12813" /><g
     id="g12815" /><g
     id="g12817" /><g
     id="g12819" /><g
     id="g12821" /><g
     id="g12823" /><g
     id="g12825" /></svg>