<?xml version="1.0" encoding="iso-8859-1"?>
<!-- Generator: Adobe Illustrator 18.1.1, SVG Export Plug-In . SVG Version: 6.00 Build 0)  -->
<svg xmlns="http://www.w3.org/2000/svg" xmlns:xlink="http://www.w3.org/1999/xlink" version="1.1" id="Capa_1" x="0px" y="0px" viewBox="0 0 21.962 21.962" style="enable-background:new 0 0 21.962 21.962;" xml:space="preserve" width="512px" height="512px">
<g>
	<g>
		<path d="M1.334,9.368C3.18,3.435,9.803,4.069,9.803,4.069L4.33,1.016c0,0,0,0-1.669-0.807C0.987-0.597,1.334,1.188,1.334,1.188    V9.368z" fill="#f03aa0"/>
		<path d="M1.334,12.595v8.18c0,0-0.347,1.784,1.327,0.978c1.669-0.807,1.669-0.807,1.669-0.807l5.473-3.053    C9.803,17.894,3.179,18.528,1.334,12.595z" fill="#f03aa0"/>
		<path d="M20,10.33c-1.556-1.005-1.556-1.005-1.556-1.005l-5.458-3.078c0,0,3.991,5.321-0.109,9.989l6.979-4.264    C19.856,11.972,21.561,11.337,20,10.33z" fill="#f03aa0"/>
		<circle cx="8.075" cy="10.981" r="4.24" fill="#f03aa0"/>
	</g>
	<g>
	</g>
	<g>
	</g>
	<g>
	</g>
	<g>
	</g>
	<g>
	</g>
	<g>
	</g>
	<g>
	</g>
	<g>
	</g>
	<g>
	</g>
	<g>
	</g>
	<g>
	</g>
	<g>
	</g>
	<g>
	</g>
	<g>
	</g>
	<g>
	</g>
</g>
<g>
</g>
<g>
</g>
<g>
</g>
<g>
</g>
<g>
</g>
<g>
</g>
<g>
</g>
<g>
</g>
<g>
</g>
<g>
</g>
<g>
</g>
<g>
</g>
<g>
</g>
<g>
</g>
<g>
</g>
</svg>
