<?xml version="1.0" encoding="iso-8859-1"?>
<!-- Generator: Adobe Illustrator 16.0.0, SVG Export Plug-In . SVG Version: 6.00 Build 0)  -->
<!DOCTYPE svg PUBLIC "-//W3C//DTD SVG 1.1//EN" "http://www.w3.org/Graphics/SVG/1.1/DTD/svg11.dtd">
<svg xmlns="http://www.w3.org/2000/svg" xmlns:xlink="http://www.w3.org/1999/xlink" version="1.1" id="Capa_1" x="0px" y="0px" width="512px" height="512px" viewBox="0 0 40.466 40.466" style="enable-background:new 0 0 40.466 40.466;" xml:space="preserve">
<g>
	<g>
		<polygon points="10.117,11.774 10.117,16.607 14.302,14.191   " fill="#f03aa0"/>
		<polygon points="10.117,23.858 10.117,28.691 14.302,26.275   " fill="#f03aa0"/>
		<polygon points="10.465,23.253 14.651,25.671 14.651,20.837   " fill="#f03aa0"/>
		<polygon points="10.465,11.17 14.651,13.586 14.651,8.753   " fill="#f03aa0"/>
		<polygon points="15.349,8.753 15.349,13.586 19.535,11.17   " fill="#f03aa0"/>
		<polygon points="15.349,20.837 15.349,25.671 19.535,23.253   " fill="#f03aa0"/>
		<polygon points="15.698,32.317 19.884,34.734 19.884,29.901   " fill="#f03aa0"/>
		<polygon points="15.698,20.232 19.884,22.649 19.884,17.816   " fill="#f03aa0"/>
		<polygon points="15.698,8.148 19.884,10.565 19.884,5.732   " fill="#f03aa0"/>
		<polygon points="0,17.212 4.186,19.629 4.186,14.796   " fill="#f03aa0"/>
		<polygon points="4.883,14.796 4.883,19.629 9.07,17.212   " fill="#f03aa0"/>
		<polygon points="5.233,26.275 9.419,28.691 9.419,23.858   " fill="#f03aa0"/>
		<polygon points="5.233,14.191 9.419,16.607 9.419,11.774   " fill="#f03aa0"/>
		<polygon points="20.582,5.732 20.582,10.565 24.768,8.148   " fill="#f03aa0"/>
		<polygon points="20.582,17.816 20.582,22.649 24.768,20.232   " fill="#f03aa0"/>
		<polygon points="20.582,29.901 20.582,34.734 24.768,32.317   " fill="#f03aa0"/>
		<polygon points="20.931,23.253 25.117,25.671 25.117,20.837   " fill="#f03aa0"/>
		<polygon points="20.931,11.17 25.117,13.586 25.117,8.753   " fill="#f03aa0"/>
		<polygon points="25.814,8.753 25.814,13.586 30.001,11.17   " fill="#f03aa0"/>
		<polygon points="25.814,20.837 25.814,25.671 30.001,23.253   " fill="#f03aa0"/>
		<polygon points="26.163,26.275 30.35,28.691 30.35,23.858   " fill="#f03aa0"/>
		<polygon points="26.163,14.191 30.35,16.607 30.35,11.774   " fill="#f03aa0"/>
		<polygon points="31.047,11.774 31.047,16.607 35.232,14.191   " fill="#f03aa0"/>
		<polygon points="31.047,23.858 31.047,28.691 35.232,26.275   " fill="#f03aa0"/>
		<polygon points="31.396,17.212 35.583,19.629 35.583,14.796   " fill="#f03aa0"/>
		<polygon points="36.279,14.796 36.279,19.629 40.466,17.212   " fill="#f03aa0"/>
	</g>
</g>
<g>
</g>
<g>
</g>
<g>
</g>
<g>
</g>
<g>
</g>
<g>
</g>
<g>
</g>
<g>
</g>
<g>
</g>
<g>
</g>
<g>
</g>
<g>
</g>
<g>
</g>
<g>
</g>
<g>
</g>
</svg>
