<?xml version="1.0" encoding="UTF-8" standalone="no"?>
<!-- Generator: Adobe Illustrator 19.1.0, SVG Export Plug-In . SVG Version: 6.00 Build 0)  -->

<svg
   xmlns:dc="http://purl.org/dc/elements/1.1/"
   xmlns:cc="http://creativecommons.org/ns#"
   xmlns:rdf="http://www.w3.org/1999/02/22-rdf-syntax-ns#"
   xmlns:svg="http://www.w3.org/2000/svg"
   xmlns="http://www.w3.org/2000/svg"
   xmlns:sodipodi="http://sodipodi.sourceforge.net/DTD/sodipodi-0.dtd"
   xmlns:inkscape="http://www.inkscape.org/namespaces/inkscape"
   version="1.1"
   id="Capa_1"
   x="0px"
   y="0px"
   viewBox="0 0 64.5 64.5"
   style="enable-background:new 0 0 64.5 64.5;"
   xml:space="preserve"
   inkscape:version="0.48.4 r9939"
   width="100%"
   height="100%"
   sodipodi:docname="i6.svg"><metadata
     id="metadata3484"><rdf:RDF><cc:Work
         rdf:about=""><dc:format>image/svg+xml</dc:format><dc:type
           rdf:resource="http://purl.org/dc/dcmitype/StillImage" /><dc:title></dc:title></cc:Work></rdf:RDF></metadata><defs
     id="defs3482" /><sodipodi:namedview
     pagecolor="#ffffff"
     bordercolor="#666666"
     borderopacity="1"
     objecttolerance="10"
     gridtolerance="10"
     guidetolerance="10"
     inkscape:pageopacity="0"
     inkscape:pageshadow="2"
     inkscape:window-width="2560"
     inkscape:window-height="1605"
     id="namedview3480"
     showgrid="false"
     inkscape:zoom="3.6589147"
     inkscape:cx="-35.666314"
     inkscape:cy="32.25"
     inkscape:window-x="0"
     inkscape:window-y="73"
     inkscape:window-maximized="1"
     inkscape:current-layer="group-16svg" /><g
     id="g3444"><g
       id="group-16svg"><path
         id="path-1_6_"
         style="fill:#f03aa0;fill-opacity:1"
         d="M31.353,11.18L4.5,59.834h60L37.648,11.139C36.148,8.9,32.854,8.94,31.353,11.18z" /><path
         id="path-2_6_"
         d="M61.5,57.834h-60c-0.531,0-1.023-0.281-1.293-0.739c-0.269-0.457-0.276-1.023-0.018-1.488L27.041,7.202    c0.021-0.037,0.042-0.072,0.066-0.107c1.019-1.522,2.712-2.43,4.526-2.43c1.744,0,3.297,0.825,4.261,2.265    c0.024,0.036,0.046,0.072,0.066,0.109l26.853,48.57c0.257,0.464,0.249,1.03-0.021,1.487C62.523,57.554,62.032,57.834,61.5,57.834z     M4.048,54.834h54.909L33.369,8.553c-0.543-0.771-1.317-0.888-1.736-0.888c-0.794,0-1.538,0.393-2.003,1.054L4.048,54.834z" /><path
         id="path-3_6_"
         d="M60.902,57.834H1.5c-0.534,0-1.027-0.284-1.296-0.745c-0.268-0.462-0.272-1.031-0.008-1.495l6.605-11.639    c0.202-0.356,0.541-0.614,0.938-0.714l40.393-10.206c0.651-0.166,1.338,0.127,1.672,0.714l12.402,21.845    c0.264,0.464,0.261,1.033-0.008,1.495C61.929,57.55,61.436,57.834,60.902,57.834z M4.076,54.834h54.249l-10.566-18.61    L9.094,45.993L4.076,54.834z" /></g></g><g
     id="g3450" /><g
     id="g3452" /><g
     id="g3454" /><g
     id="g3456" /><g
     id="g3458" /><g
     id="g3460" /><g
     id="g3462" /><g
     id="g3464" /><g
     id="g3466" /><g
     id="g3468" /><g
     id="g3470" /><g
     id="g3472" /><g
     id="g3474" /><g
     id="g3476" /><g
     id="g3478" /></svg>