<?xml version="1.0" encoding="UTF-8" standalone="no"?>
<!-- Generator: Adobe Illustrator 19.0.0, SVG Export Plug-In . SVG Version: 6.00 Build 0)  -->

<svg
   xmlns:dc="http://purl.org/dc/elements/1.1/"
   xmlns:cc="http://creativecommons.org/ns#"
   xmlns:rdf="http://www.w3.org/1999/02/22-rdf-syntax-ns#"
   xmlns:svg="http://www.w3.org/2000/svg"
   xmlns="http://www.w3.org/2000/svg"
   xmlns:sodipodi="http://sodipodi.sourceforge.net/DTD/sodipodi-0.dtd"
   xmlns:inkscape="http://www.inkscape.org/namespaces/inkscape"
   version="1.1"
   id="Layer_1"
   x="0px"
   y="0px"
   viewBox="0 0 512 512"
   style="enable-background:new 0 0 512 512;"
   xml:space="preserve"
   width="512px"
   height="512px"
   inkscape:version="0.48.4 r9939"
   sodipodi:docname="reflective-triangle.svg"><metadata
     id="metadata6791"><rdf:RDF><cc:Work
         rdf:about=""><dc:format>image/svg+xml</dc:format><dc:type
           rdf:resource="http://purl.org/dc/dcmitype/StillImage" /><dc:title></dc:title></cc:Work></rdf:RDF></metadata><defs
     id="defs6789" /><sodipodi:namedview
     pagecolor="#ffffff"
     bordercolor="#666666"
     borderopacity="1"
     objecttolerance="10"
     gridtolerance="10"
     guidetolerance="10"
     inkscape:pageopacity="0"
     inkscape:pageshadow="2"
     inkscape:window-width="2560"
     inkscape:window-height="1605"
     id="namedview6787"
     showgrid="false"
     inkscape:zoom="0.4609375"
     inkscape:cx="-283.11864"
     inkscape:cy="256"
     inkscape:window-x="0"
     inkscape:window-y="73"
     inkscape:window-maximized="1"
     inkscape:current-layer="g6733" /><g
     id="g6733"><g
       id="g6735"><polygon
         points="331.692,102.987 275.277,200.702 363.599,353.682 476.432,353.682   "
         fill="#292b2c"
         id="polygon6737"
         style="fill:#71d0d0;fill-opacity:1" /></g></g><g
     id="g6739"><g
       id="g6741"><path
         d="M303.919,54.88C293.918,37.557,276.005,27.214,256,27.214s-37.917,10.343-47.919,27.666L35.569,353.682h112.832    L312.417,69.599L303.919,54.88z M256,110.491c-9.219,0-16.694-7.474-16.694-16.694c0-9.22,7.474-16.694,16.694-16.694    c9.219,0,16.694,7.474,16.694,16.694C272.694,103.017,265.219,110.491,256,110.491z"
         fill="#292b2c"
         id="path6743"
         style="fill:#f03aa0;fill-opacity:1" /></g></g><g
     id="g6745"><g
       id="g6747"><polygon
         points="256,234.089 186.953,353.682 325.047,353.682   "
         fill="#292b2c"
         id="polygon6749" /></g></g><g
     id="g6751"><g
       id="g6753"><path
         d="M504.553,402.389l-8.844-15.32H16.292l-8.845,15.32c-9.929,17.198-9.929,37.732,0,54.93    c9.929,17.199,27.713,27.467,47.571,27.467h401.963c19.859,0,37.642-10.268,47.571-27.467    C514.482,440.122,514.482,419.587,504.553,402.389z M97.509,450.759c-9.219,0-16.694-7.474-16.694-16.694    s7.474-16.694,16.694-16.694c9.219,0,16.694,7.474,16.694,16.694S106.73,450.759,97.509,450.759z M414.491,450.759    c-9.219,0-16.694-7.474-16.694-16.694s7.474-16.694,16.694-16.694s16.694,7.474,16.694,16.694S423.711,450.759,414.491,450.759z"
         fill="#292b2c"
         id="path6755"
         style="fill:#fbc721;fill-opacity:1" /></g></g><g
     id="g6757" /><g
     id="g6759" /><g
     id="g6761" /><g
     id="g6763" /><g
     id="g6765" /><g
     id="g6767" /><g
     id="g6769" /><g
     id="g6771" /><g
     id="g6773" /><g
     id="g6775" /><g
     id="g6777" /><g
     id="g6779" /><g
     id="g6781" /><g
     id="g6783" /><g
     id="g6785" /></svg>