<?xml version="1.0" encoding="UTF-8" standalone="no"?>
<!-- Generator: Adobe Illustrator 19.0.0, SVG Export Plug-In . SVG Version: 6.00 Build 0)  -->

<svg
   xmlns:dc="http://purl.org/dc/elements/1.1/"
   xmlns:cc="http://creativecommons.org/ns#"
   xmlns:rdf="http://www.w3.org/1999/02/22-rdf-syntax-ns#"
   xmlns:svg="http://www.w3.org/2000/svg"
   xmlns="http://www.w3.org/2000/svg"
   xmlns:sodipodi="http://sodipodi.sourceforge.net/DTD/sodipodi-0.dtd"
   xmlns:inkscape="http://www.inkscape.org/namespaces/inkscape"
   version="1.1"
   id="Layer_1"
   x="0px"
   y="0px"
   viewBox="0 0 512 512"
   style="enable-background:new 0 0 512 512;"
   xml:space="preserve"
   inkscape:version="0.48.4 r9939"
   width="100%"
   height="100%"
   sodipodi:docname="sun-bath.svg"><metadata
     id="metadata15215"><rdf:RDF><cc:Work
         rdf:about=""><dc:format>image/svg+xml</dc:format><dc:type
           rdf:resource="http://purl.org/dc/dcmitype/StillImage" /></cc:Work></rdf:RDF></metadata><defs
     id="defs15213" /><sodipodi:namedview
     pagecolor="#ffffff"
     bordercolor="#666666"
     borderopacity="1"
     objecttolerance="10"
     gridtolerance="10"
     guidetolerance="10"
     inkscape:pageopacity="0"
     inkscape:pageshadow="2"
     inkscape:window-width="2560"
     inkscape:window-height="1605"
     id="namedview15211"
     showgrid="false"
     inkscape:zoom="2.6074563"
     inkscape:cx="161.46342"
     inkscape:cy="271.34062"
     inkscape:window-x="0"
     inkscape:window-y="73"
     inkscape:window-maximized="1"
     inkscape:current-layer="Layer_1" /><polygon
     style="fill:#71d0d0;fill-opacity:1"
     points="362.582,355.265 308.245,355.265 308.245,323.918 344.816,323.918 417.959,250.775   438.857,271.673 441.786,274.489 "
     id="polygon15163" /><path
     style="fill:#f03aa0;fill-opacity:1"
     d="M161.959,329.143v15.673c0,5.745-4.704,10.449-10.449,10.449H67.918  c-5.745,0-10.449-4.704-10.449-10.449v-15.673c0-5.745,4.704-10.449,10.449-10.449h83.592  C157.255,318.694,161.959,323.398,161.959,329.143z"
     id="path15167" /><path
     style="fill:#fbc721;fill-opacity:1"
     d="M370.939,62.694c20.163,0,36.571,16.408,36.571,36.571s-16.408,36.571-36.571,36.571  s-36.571-16.408-36.571-36.571S350.775,62.694,370.939,62.694z"
     id="path15169" /><g
     id="g15171"><path
       style="fill:#231F20;"
       d="M417.959,407.51h20.898c5.771,0,10.449-4.678,10.449-10.449v-41.796   c0-3.113-1.362-5.909-3.522-7.823l63.156-63.155c4.08-4.08,4.08-10.697,0-14.778l-31.347-31.347c-1.96-1.96-4.617-3.06-7.388-3.06   c-0.016,0-0.031,0-0.047,0c-2.788,0.013-5.454,1.139-7.407,3.127l-21.086,21.473l-16.315-16.315c-4.08-4.079-10.697-4.079-14.778,0   l-70.082,70.082h-32.243c-5.771,0-10.449,4.679-10.449,10.449v20.898H172.408v-15.673c0-3.809-1.041-7.372-2.827-10.449   c1.787-3.077,2.827-6.64,2.827-10.449v-15.673c0-11.523-9.375-20.898-20.898-20.898H67.918c-11.523,0-20.898,9.375-20.898,20.898   v15.673c0,3.809,1.041,7.372,2.827,10.449c-1.787,3.077-2.827,6.64-2.827,10.449v15.673H10.449C4.678,344.816,0,349.495,0,355.265   v41.796c0,5.771,4.678,10.449,10.449,10.449h20.898v52.245H0v20.898h41.796h31.347h303.02h31.347H512v-20.898h-94.041V407.51z    M318.694,334.367h26.122c2.771,0,5.429-1.101,7.388-3.06l65.754-65.753l9.066,9.067l-68.832,70.196h-39.499V334.367z    M67.918,292.571h83.592l0.001,15.673H67.918V292.571z M67.918,329.143h83.592v15.673H67.918V329.143z M62.694,459.755H52.245   V407.51h10.449V459.755z M83.592,407.51h282.122v52.245H83.592V407.51z M397.061,459.755h-10.449V407.51h10.449V459.755z    M376.163,386.612H73.143H41.796H20.898v-20.898h47.02h83.592h211.072c2.807,0,5.495-1.13,7.461-3.134l79.198-80.77l21.031-21.415   l16.503,16.502l-67.918,67.918h-21.794v20.898h26.122h5.224v20.898H407.51H376.163z"
       id="path15173" /><path
       style="fill:#231F20;"
       d="M331.15,124.276l-14.621,14.621l14.778,14.778l14.621-14.621c4.416,2.786,9.323,4.854,14.562,6.048   v22.082h20.898v-22.083c5.239-1.194,10.146-3.262,14.562-6.048l14.621,14.621l14.778-14.778l-14.621-14.621   c2.785-4.416,4.854-9.323,6.048-14.562h22.082V88.816h-22.083c-1.194-5.239-3.262-10.146-6.048-14.562l14.621-14.621L410.57,44.855   l-14.621,14.621c-4.416-2.786-9.323-4.855-14.562-6.048V31.347h-20.898V53.43c-5.239,1.194-10.146,3.262-14.562,6.048   l-14.621-14.621l-14.778,14.778l14.621,14.621c-2.785,4.416-4.854,9.323-6.048,14.562H303.02v20.898h22.083   C326.297,114.953,328.365,119.86,331.15,124.276z M370.939,73.143c14.404,0,26.122,11.719,26.122,26.122   s-11.719,26.122-26.122,26.122c-14.404,0-26.122-11.719-26.122-26.122S356.535,73.143,370.939,73.143z"
       id="path15175" /><path
       style="fill:#231F20;"
       d="M104.49,120.163c5.762,0,10.449,4.687,10.449,10.449h20.898c0-5.762,4.687-10.449,10.449-10.449   c5.762,0,10.449,4.687,10.449,10.449h20.898c0-17.285-14.062-31.347-31.347-31.347c-8.023,0-15.349,3.032-20.898,8.007   c-5.55-4.975-12.875-8.007-20.898-8.007c-17.285,0-31.347,14.062-31.347,31.347h20.898   C94.041,124.851,98.728,120.163,104.49,120.163z"
       id="path15177" /><path
       style="fill:#231F20;"
       d="M167.184,151.51c-17.285,0-31.347,14.062-31.347,31.347h20.898c0-5.762,4.687-10.449,10.449-10.449   c5.762,0,10.449,4.687,10.449,10.449h20.898c0-5.762,4.687-10.449,10.449-10.449s10.449,4.687,10.449,10.449h20.898   c0-17.285-14.062-31.347-31.347-31.347c-8.023,0-15.348,3.032-20.898,8.007C182.531,154.542,175.206,151.51,167.184,151.51z"
       id="path15179" /></g><g
     id="g15181" /><g
     id="g15183" /><g
     id="g15185" /><g
     id="g15187" /><g
     id="g15189" /><g
     id="g15191" /><g
     id="g15193" /><g
     id="g15195" /><g
     id="g15197" /><g
     id="g15199" /><g
     id="g15201" /><g
     id="g15203" /><g
     id="g15205" /><g
     id="g15207" /><g
     id="g15209" /></svg>