<?xml version="1.0" encoding="UTF-8" standalone="no"?>
<!-- Generator: Adobe Illustrator 19.0.0, SVG Export Plug-In . SVG Version: 6.00 Build 0)  -->

<svg
   xmlns:dc="http://purl.org/dc/elements/1.1/"
   xmlns:cc="http://creativecommons.org/ns#"
   xmlns:rdf="http://www.w3.org/1999/02/22-rdf-syntax-ns#"
   xmlns:svg="http://www.w3.org/2000/svg"
   xmlns="http://www.w3.org/2000/svg"
   xmlns:sodipodi="http://sodipodi.sourceforge.net/DTD/sodipodi-0.dtd"
   xmlns:inkscape="http://www.inkscape.org/namespaces/inkscape"
   version="1.1"
   id="Layer_1"
   x="0px"
   y="0px"
   viewBox="0 0 512 512"
   style="enable-background:new 0 0 512 512;"
   xml:space="preserve"
   inkscape:version="0.48.4 r9939"
   width="100%"
   height="100%"
   sodipodi:docname="sun-umbrella.svg"><metadata
     id="metadata13716"><rdf:RDF><cc:Work
         rdf:about=""><dc:format>image/svg+xml</dc:format><dc:type
           rdf:resource="http://purl.org/dc/dcmitype/StillImage" /><dc:title></dc:title></cc:Work></rdf:RDF></metadata><defs
     id="defs13714" /><sodipodi:namedview
     pagecolor="#ffffff"
     bordercolor="#666666"
     borderopacity="1"
     objecttolerance="10"
     gridtolerance="10"
     guidetolerance="10"
     inkscape:pageopacity="0"
     inkscape:pageshadow="2"
     inkscape:window-width="2560"
     inkscape:window-height="1605"
     id="namedview13712"
     showgrid="false"
     inkscape:zoom="1.84375"
     inkscape:cx="121.22034"
     inkscape:cy="256"
     inkscape:window-x="0"
     inkscape:window-y="73"
     inkscape:window-maximized="1"
     inkscape:current-layer="Layer_1" /><g
     id="g13662"
     style="fill:#ffffff"><rect
       x="329.096"
       y="422.922"
       style="fill:#ffffff"
       width="31.328"
       height="78.632"
       id="rect13664" /><rect
       x="94.139"
       y="422.922"
       style="fill:#ffffff"
       width="31.328"
       height="78.632"
       id="rect13666" /><polygon
       style="fill:#ffffff"
       points="57.591,391.595 240.335,391.595 240.335,422.922 125.467,422.922 94.14,422.922    57.591,422.922  "
       id="polygon13668" /><polygon
       style="fill:#ffffff"
       points="378.903,391.595 458.374,312.124 480.513,334.263 391.854,422.922 391.752,422.922    360.424,422.922 329.097,422.922 271.663,422.922 271.663,391.595  "
       id="polygon13670" /></g><path
     style="fill:#ffffff"
     d="M272.285,168.753l-0.622,3.548v219.293v31.328v78.635h-31.328v-78.635v-31.328V172.302l-0.632-3.548  c5.221-1.153,10.657-1.673,16.296-1.673C261.639,167.08,267.064,167.6,272.285,168.753z"
     id="path13672" /><path
     style="fill:#fbc721;fill-opacity:1"
     d="M255.999,10.443c83.54,41.77,67.876,198.408,67.876,198.408  c-8.352-20.156-27.677-35.401-51.59-40.097c-5.221-1.153-10.646-1.673-16.286-1.673c-5.639,0-11.074,0.52-16.296,1.673  c-23.904,4.696-43.228,19.942-51.581,40.097C188.123,208.85,172.459,52.213,255.999,10.443z"
     id="path13674" /><path
     style="fill:#71d0d0;fill-opacity:1"
     d="M255.999,10.443c-83.54,41.77-67.876,198.408-67.876,198.408s-26.106-41.77-67.876-41.77  c-28.197,0-52.416,17.229-62.655,41.77C57.591,99.306,146.455,10.443,255.999,10.443z"
     id="path13676" /><path
     style="fill:#f03aa0;fill-opacity:1"
     d="M255.999,10.443c109.544,0,198.408,88.864,198.408,198.408c-10.239-24.541-34.458-41.77-62.655-41.77  c-41.77,0-67.876,41.77-67.876,41.77S339.539,52.213,255.999,10.443z"
     id="path13678" /><path
     style="fill:#292b2c;fill-opacity:1"
     d="M370.867,491.115v-57.75h20.885v-0.005c0.034,0,0.068,0.005,0.102,0.005  c2.769,0,5.425-1.101,7.384-3.059l88.659-88.659c4.078-4.078,4.078-10.69,0-14.769l-22.139-22.139  c-4.079-4.078-10.689-4.078-14.769,0l-76.412,76.413h-92.472V182.473c14.821,5.852,26.44,16.663,32.123,30.375  c1.493,3.604,4.878,6.064,8.765,6.397c3.877,0.333,7.641-1.54,9.725-4.839c0.233-0.369,23.705-36.883,59.034-36.883  c23.248,0,44.058,13.875,53.019,35.349c1.646,3.946,5.488,6.422,9.632,6.422c0.68,0,1.368-0.067,2.056-0.205  c4.88-0.977,8.392-5.262,8.392-10.239C464.851,93.69,371.161,0,256.001,0S47.151,93.69,47.151,208.85  c0,4.977,3.512,9.263,8.392,10.239c4.882,0.974,9.771-1.625,11.687-6.219c8.959-21.473,29.77-35.348,53.017-35.348  c35.329,0,58.802,36.514,59.021,36.862c2.072,3.316,5.811,5.195,9.721,4.872c3.897-0.324,7.286-2.798,8.782-6.41  c5.683-13.715,17.301-24.526,32.123-30.378v198.683H57.592c-5.766,0-10.443,4.675-10.443,10.443v31.328  c0,5.767,4.676,10.443,10.443,10.443h26.106v57.75H0.158V512h511.684v-20.885H370.867z M135.91,433.365h93.983v57.75H135.91V433.365  z M250.778,177.725c1.703-0.12,3.435-0.203,5.221-0.203c1.806,0,3.531,0.08,5.221,0.198v313.393h-10.443V177.725z M282.105,433.365  h36.549v57.75h-36.549V433.365z M349.982,491.115h-10.443v-57.75h10.443V491.115z M378.903,402.037c2.769,0,5.425-1.101,7.384-3.059  l72.087-72.088l7.371,7.371l-78.218,78.218h-27.104h-31.328h-46.991v-10.443H378.903z M440.68,173.758  c-13.586-10.872-30.708-17.121-48.928-17.121c-23.935,0-43.07,11.603-56.254,23.247c0.018-15.284-0.807-35.053-3.901-56.094  c-3.95-26.865-10.816-50.214-20.408-69.396c-5.813-11.628-12.651-21.725-20.437-30.281  C366.472,38.327,426.334,98.083,440.68,173.758z M120.246,156.638c-18.219,0-35.343,6.249-48.927,17.121  C85.665,98.083,145.525,38.327,221.247,24.115c-7.786,8.556-14.624,18.652-20.437,30.281c-9.591,19.182-16.457,42.53-20.408,69.396  c-3.094,21.041-3.919,40.81-3.901,56.094C163.316,168.24,144.181,156.638,120.246,156.638z M197.431,178.282  c0.128-44.316,7.656-125.992,58.567-155.936c50.823,29.905,58.39,111.585,58.548,155.918c-10.844-9.743-24.65-16.673-40.131-19.734  c-5.81-1.273-11.837-1.891-18.417-1.891c-6.495,0-12.694,0.636-18.427,1.891C222.088,161.593,208.276,168.531,197.431,178.282z   M68.034,402.037h161.859v10.443H125.467H94.14H68.034V402.037z M104.582,433.365h10.443v57.75h-10.443V433.365z"
     id="path13680" /><g
     id="g13682" /><g
     id="g13684" /><g
     id="g13686" /><g
     id="g13688" /><g
     id="g13690" /><g
     id="g13692" /><g
     id="g13694" /><g
     id="g13696" /><g
     id="g13698" /><g
     id="g13700" /><g
     id="g13702" /><g
     id="g13704" /><g
     id="g13706" /><g
     id="g13708" /><g
     id="g13710" /></svg>